<svg width="43" height="43" viewBox="0 0 43 43" fill="none" xmlns="http://www.w3.org/2000/svg">
<path d="M40.9578 5.97371L34.2623 12.2925L40.667 23.0728L40.9578 22.7113V5.97371ZM2.36426 6.0659V24.381C2.72749 24.4282 3.16394 24.4543 3.60436 24.4589C4.56676 24.469 5.36004 24.4062 5.80565 24.3661L10.0749 13.5636L2.36426 6.0659ZM33.9164 14.5678L33.3456 14.9372C33.3335 14.9451 32.9109 15.2077 32.7867 15.2851L31.9269 15.8056L31.9391 15.8129C31.5406 16.0607 31.4299 16.1305 30.9777 16.4112C30.7483 16.5537 30.7426 16.557 30.525 16.6922C28.8799 15.8078 27.0948 15.1282 25.0118 14.5937C22.3919 15.3852 19.6166 16.5305 16.8453 17.6051C17.9959 18.9905 19.2745 19.4416 20.5624 19.4578C22.0559 19.4764 23.5826 18.827 24.634 18.0994L25.234 17.6843L25.8361 18.5542L35.1969 25.3105L38.8545 22.8792L33.9164 14.5678ZM11.1594 14.79L7.48114 24.0968L8.83111 25.1348L11.3279 22.3048L11.528 22.0782L11.8296 22.0594C11.9512 22.0517 12.0712 22.0482 12.1896 22.0488C13.0175 22.0542 13.7578 22.269 14.313 22.7591C14.7242 23.1216 14.9976 23.6044 15.1562 24.1633L15.3411 24.1518C16.3136 24.091 17.1898 24.2917 17.8245 24.8515C18.4591 25.4116 18.7675 26.2561 18.8283 27.2288L18.834 27.3163C19.3561 27.4149 19.8235 27.6206 20.2036 27.9559C20.8383 28.5158 21.1466 29.3602 21.2074 30.3329L21.2234 30.5858C21.2752 30.6023 21.3265 30.62 21.3774 30.6392L21.5422 30.4079L21.9857 29.7854L22.2138 29.4651L22.8081 29.8886L27.6265 33.3211C28.1506 33.1919 28.463 32.9907 28.6367 32.7466C28.8108 32.5024 28.8988 32.1409 28.8495 31.6028L23.072 27.4654L22.4786 27.0405L22.8994 26.453L23.4402 25.6937L24.0345 26.1172L30.548 30.757C31.0721 30.6278 31.3847 30.4267 31.5585 30.1826C31.7323 29.9385 31.8204 29.578 31.7713 29.0408L24.2798 23.7261L23.6847 23.3037L24.529 22.1134L25.1244 22.5357L32.6172 27.8516C33.1418 27.7224 33.4545 27.5212 33.6285 27.2769C33.8027 27.0325 33.8906 26.6708 33.8409 26.1317L24.8866 19.6689C23.6984 20.3733 22.1784 20.9376 20.5442 20.9172C18.6318 20.8933 16.5862 19.9794 15.0814 17.67C15.0219 17.5787 14.9836 17.4752 14.9693 17.3671C14.955 17.259 14.9652 17.1491 14.9989 17.0455C15.0327 16.9418 15.0893 16.8471 15.1645 16.7681C15.2397 16.6892 15.3316 16.6282 15.4335 16.5894C16.4887 16.1885 17.5548 15.7649 18.6234 15.3446L11.1596 14.7905L11.1594 14.79ZM12.2055 23.5157L8.34909 27.8867C8.42425 28.4336 8.59557 28.7738 8.8264 28.9775C9.05724 29.1812 9.41625 29.3087 9.96832 29.3151L13.8247 24.9443C13.7495 24.3973 13.5782 24.0569 13.3474 23.8532C13.1165 23.6495 12.7576 23.5221 12.2054 23.5158L12.2055 23.5157ZM15.7169 25.6083L11.3619 30.5444C11.437 31.0915 11.6084 31.4318 11.8391 31.6355C12.0702 31.839 12.429 31.9665 12.9811 31.9728L17.3361 27.0369C17.261 26.4897 17.0896 26.1495 16.8588 25.9458C16.6281 25.7421 16.2691 25.6146 15.717 25.6082L15.7169 25.6083ZM18.0957 28.7125L14.2396 33.0835C14.3148 33.6304 14.4861 33.9707 14.7169 34.1745C14.9479 34.3781 15.3068 34.5055 15.8589 34.5119L19.7151 30.1415C19.64 29.5942 19.4687 29.2539 19.2378 29.0501C19.007 28.8465 18.6481 28.7191 18.0959 28.7127L18.0957 28.7125ZM20.0986 31.8857L16.9532 35.4759C17.0282 36.024 17.1995 36.3647 17.4306 36.5685C17.6612 36.772 18.0198 36.8995 18.5711 36.906L21.7166 33.3159C21.6416 32.7679 21.4702 32.4272 21.2391 32.2232C21.0085 32.0197 20.65 31.8924 20.0986 31.8858L20.0986 31.8857ZM22.964 32.2741C23.1014 32.6487 23.1808 33.0638 23.2084 33.5058L23.2272 33.8061L22.5561 34.5722L24.7229 36.1157C25.247 35.9864 25.5593 35.7853 25.7331 35.5411C25.907 35.2971 25.9953 34.936 25.9462 34.3985L22.9641 32.2742L22.964 32.2741Z" fill="white"/>
</svg>
