<svg width="36" height="35" viewBox="0 0 36 35" fill="none" xmlns="http://www.w3.org/2000/svg">
<path d="M18.187 0.115234C15.9155 0.115234 13.6663 0.56263 11.5677 1.43188C9.4692 2.30112 7.56242 3.5752 5.95626 5.18136C2.71247 8.42514 0.890137 12.8247 0.890137 17.4121C0.890137 21.9995 2.71247 26.399 5.95626 29.6428C7.56242 31.2489 9.4692 32.523 11.5677 33.3922C13.6663 34.2615 15.9155 34.7089 18.187 34.7089C22.7744 34.7089 27.1739 32.8865 30.4177 29.6428C33.6614 26.399 35.4838 21.9995 35.4838 17.4121C35.4838 15.4056 35.1205 13.4165 34.4287 11.5484L31.6612 14.3159C31.9033 15.3364 32.0244 16.3742 32.0244 17.4121C32.0244 21.082 30.5665 24.6016 27.9715 27.1966C25.3765 29.7916 21.8569 31.2495 18.187 31.2495C14.517 31.2495 10.9974 29.7916 8.4024 27.1966C5.80737 24.6016 4.3495 21.082 4.3495 17.4121C4.3495 13.7421 5.80737 10.2225 8.4024 7.6275C10.9974 5.03247 14.517 3.5746 18.187 3.5746C19.2248 3.5746 20.2626 3.69568 21.2831 3.93783L24.0679 1.15304C22.1825 0.478467 20.1934 0.115234 18.187 0.115234ZM30.2947 0.115234L23.376 7.03396V9.62848L18.9653 14.0392C18.7059 13.9527 18.4464 13.9527 18.187 13.9527C17.2695 13.9527 16.3896 14.3172 15.7408 14.9659C15.0921 15.6147 14.7276 16.4946 14.7276 17.4121C14.7276 18.3295 15.0921 19.2094 15.7408 19.8582C16.3896 20.507 17.2695 20.8714 18.187 20.8714C19.1044 20.8714 19.9843 20.507 20.6331 19.8582C21.2819 19.2094 21.6463 18.3295 21.6463 17.4121C21.6463 17.1526 21.6463 16.8932 21.5598 16.6337L25.9705 12.223H28.565L35.4838 5.30428H30.2947V0.115234ZM18.187 7.03396C15.4345 7.03396 12.7948 8.12737 10.8485 10.0736C8.90227 12.0199 7.80886 14.6596 7.80886 17.4121C7.80886 20.1645 8.90227 22.8042 10.8485 24.7505C12.7948 26.6967 15.4345 27.7901 18.187 27.7901C20.9394 27.7901 23.5791 26.6967 25.5254 24.7505C27.4716 22.8042 28.565 20.1645 28.565 17.4121H25.1057C25.1057 19.247 24.3767 21.0068 23.0792 22.3043C21.7817 23.6018 20.0219 24.3308 18.187 24.3308C16.352 24.3308 14.5922 23.6018 13.2947 22.3043C11.9972 21.0068 11.2682 19.247 11.2682 17.4121C11.2682 15.5771 11.9972 13.8173 13.2947 12.5198C14.5922 11.2223 16.352 10.4933 18.187 10.4933V7.03396Z" fill="white"/>
</svg>
